<?xml version="1.0" encoding="utf-8"?>
<!-- Generator: Adobe Illustrator 25.0.0, SVG Export Plug-In . SVG Version: 6.00 Build 0)  -->
<svg version="1.1" id="ec6a294e-2e1b-45aa-8fd9-dd813f293668"
	 xmlns="http://www.w3.org/2000/svg" xmlns:xlink="http://www.w3.org/1999/xlink" x="0px" y="0px" viewBox="0 0 130 44"
	 style="enable-background:new 0 0 130 44;" xml:space="preserve">
<style type="text/css">
	.st0{fill:#00784D;}
	.st1{fill:#F6BE3E;}
	.st2{fill:#FFFFFF;}
</style>
<g>
	<path class="st0" d="M51.1,6.4l-2.9,3.3l-1.1,4.8c-0.8,3.4-3.5,6.8-7.4,6.8c-4.1,0-7.4-3.3-7.4-7.4s3.3-7.4,7.4-7.4
		c1.5,0,2.8,0.4,4,1.1c0,0,0,0,0,0c0.5,0.3,1,0.5,1.6,0.5c1.7,0,3.1-1.4,3.1-3.1c0-1.3-0.8-2.5-2-2.9c-2-1.1-4.3-1.8-6.7-1.8
		C32.1,0.2,26,6.3,26,13.9s6.1,13.7,13.7,13.7c7.5,0,13.7-6.1,13.7-13.7C53.4,11.1,52.5,8.5,51.1,6.4z"/>
	<path class="st1" d="M90.3,0.2c-4.5,0-8.3,2.4-11,5.6c-0.3,0.3-0.5,0.6-0.9,1c-0.8,0.8-1.7,1.9-2.8,3c-2.9,3.1-6,6.2-6,6.2l0,0
		c-1.7,1.7-3.2,3.1-4.4,4.1c-1.1,0.9-2.5,1.2-4,1.2c-4.1,0-7.4-3.3-7.4-7.4s3.3-7.4,7.4-7.4c2,0,3.7,0.8,5.1,2l0,0l3.9,4.2L74,8.9
		l0.7-0.7L71,4.3l0,0c-2.5-2.5-5.9-4.1-9.8-4.1c-7.5,0-13.7,6.1-13.7,13.7s6.1,13.7,13.7,13.7c4.5,0,8.3-2.4,11-5.6
		c2.4-2.8,10.1-10.6,12.1-12.7c0.6-0.6,1.3-1.1,1.9-1.6c1.1-0.9,2.5-1.2,4-1.2c4.1,0,7.4,3.3,7.4,7.4s-3.3,7.4-7.4,7.4
		c-2,0-3.7-0.8-5.1-2l0,0l-3.9-4.2l-3.7,3.7l-0.7,0.7l3.7,3.9l0,0c2.5,2.5,5.9,4.1,9.8,4.1c7.5,0,13.7-6.1,13.7-13.7
		S97.9,0.2,90.3,0.2z"/>
</g>
<g>
	<path class="st2" d="M28.2,40.9c-0.5-0.3-0.9-0.8-1.2-1.4c-0.3-0.6-0.4-1.3-0.4-2.1c0-0.8,0.1-1.5,0.4-2.1c0.3-0.6,0.7-1.1,1.2-1.4
		c0.5-0.3,1.2-0.5,1.9-0.5c0.5,0,0.9,0.1,1.4,0.2c0.4,0.2,0.8,0.4,1.1,0.7L32,35.5c-0.3-0.3-0.6-0.5-0.9-0.6c-0.3-0.1-0.6-0.2-1-0.2
		c-0.6,0-1.1,0.2-1.5,0.7c-0.3,0.4-0.5,1.1-0.5,2c0,0.9,0.2,1.5,0.5,2c0.3,0.5,0.8,0.7,1.5,0.7c0.3,0,0.6-0.1,1-0.2
		c0.3-0.1,0.6-0.3,0.9-0.6l0.5,1.2c-0.3,0.3-0.6,0.5-1.1,0.7c-0.4,0.2-0.9,0.2-1.4,0.2C29.4,41.4,28.8,41.3,28.2,40.9z"/>
	<path class="st2" d="M33.5,41.3v-8.1H35v8.1H33.5z"/>
	<path class="st2" d="M36.2,33.1h1.6v1.6h-1.6V33.1z M36.2,41.3v-5.6h1.5v5.6H36.2z"/>
	<path class="st2" d="M39.4,40.7c-0.5-0.5-0.7-1.2-0.7-2.1c0-0.6,0.1-1.1,0.3-1.5c0.2-0.4,0.5-0.8,1-1c0.4-0.2,0.9-0.4,1.4-0.4
		c0.4,0,0.7,0.1,1.1,0.2c0.3,0.1,0.6,0.3,0.8,0.5l-0.4,1.2c-0.2-0.2-0.4-0.3-0.7-0.4c-0.2-0.1-0.5-0.1-0.7-0.1c-0.4,0-0.7,0.1-1,0.4
		c-0.2,0.3-0.3,0.7-0.3,1.2c0,0.5,0.1,0.9,0.3,1.2c0.2,0.3,0.5,0.4,1,0.4c0.2,0,0.5,0,0.7-0.1c0.2-0.1,0.5-0.2,0.7-0.4l0.4,1.2
		c-0.2,0.2-0.5,0.4-0.9,0.5s-0.7,0.2-1.1,0.2C40.5,41.4,39.9,41.2,39.4,40.7z"/>
	<path class="st2" d="M49.4,41.3h-1.8l-2-2.5v2.5H44v-8.1h1.5v4.9l1.9-2.4h1.8l-2.1,2.7L49.4,41.3z"/>
	<path class="st2" d="M53.6,41.2c-0.5-0.2-0.9-0.4-1.2-0.7l0.5-1.2c0.7,0.5,1.4,0.8,2.3,0.8c0.5,0,0.8-0.1,1-0.2
		c0.2-0.2,0.4-0.4,0.4-0.7c0-0.2-0.1-0.4-0.3-0.6c-0.2-0.1-0.6-0.3-1.2-0.4c-0.6-0.1-1.1-0.3-1.5-0.5c-0.4-0.2-0.6-0.4-0.8-0.7
		c-0.2-0.3-0.3-0.7-0.3-1.1c0-0.5,0.1-0.9,0.4-1.3c0.2-0.4,0.6-0.7,1-0.9c0.4-0.2,0.9-0.3,1.5-0.3c0.5,0,1,0.1,1.5,0.2
		c0.5,0.2,0.8,0.4,1.1,0.7l-0.5,1.2c-0.6-0.5-1.3-0.8-2.1-0.8c-0.4,0-0.7,0.1-1,0.3S54,35.4,54,35.7c0,0.2,0,0.3,0.1,0.4
		c0.1,0.1,0.2,0.2,0.5,0.3c0.2,0.1,0.5,0.2,0.9,0.3c0.9,0.2,1.6,0.5,2,0.9c0.4,0.4,0.6,0.8,0.6,1.4c0,0.7-0.3,1.3-0.8,1.7
		c-0.5,0.4-1.2,0.6-2.2,0.6C54.6,41.4,54.1,41.4,53.6,41.2z"/>
	<path class="st2" d="M63.6,38.7h-3.3c0,0.5,0.1,0.9,0.4,1.1c0.2,0.2,0.5,0.4,1,0.4c0.3,0,0.5,0,0.8-0.1c0.3-0.1,0.5-0.2,0.7-0.4
		l0.4,1.1c-0.2,0.2-0.5,0.4-0.9,0.5c-0.4,0.1-0.7,0.2-1.1,0.2c-0.9,0-1.5-0.3-2-0.8c-0.5-0.5-0.7-1.2-0.7-2.1c0-0.6,0.1-1.1,0.3-1.5
		c0.2-0.4,0.5-0.8,0.9-1c0.4-0.2,0.8-0.4,1.3-0.4c0.7,0,1.3,0.3,1.7,0.8c0.4,0.5,0.6,1.2,0.6,2.1V38.7z M60.7,37.1
		c-0.2,0.2-0.3,0.5-0.3,0.8h2c-0.1-0.7-0.4-1.1-1-1.1C61.1,36.8,60.8,36.9,60.7,37.1z"/>
	<path class="st2" d="M69.7,35.8v5.3c0,0.9-0.2,1.6-0.7,2c-0.5,0.5-1.1,0.7-2,0.7c-0.8,0-1.5-0.2-2.1-0.5l0.2-1.2
		c0.6,0.3,1.2,0.5,1.8,0.5c0.4,0,0.8-0.1,1-0.3c0.2-0.2,0.3-0.6,0.3-1v-1c-0.2,0.3-0.4,0.5-0.7,0.7c-0.3,0.2-0.6,0.3-0.9,0.3
		c-0.4,0-0.8-0.1-1.2-0.3c-0.3-0.2-0.6-0.6-0.8-1c-0.2-0.4-0.3-0.9-0.3-1.5s0.1-1,0.3-1.5c0.2-0.4,0.5-0.7,0.8-1
		c0.3-0.2,0.7-0.3,1.2-0.3c0.4,0,0.7,0.1,1,0.3c0.3,0.2,0.5,0.4,0.7,0.7v-0.8H69.7z M67.9,39.5c0.2-0.3,0.3-0.6,0.3-1.1
		c0-0.5-0.1-0.8-0.3-1.1c-0.2-0.3-0.5-0.4-0.9-0.4c-0.4,0-0.7,0.1-0.9,0.4c-0.2,0.3-0.3,0.6-0.3,1.1s0.1,0.8,0.3,1.1
		c0.2,0.3,0.5,0.4,0.9,0.4C67.4,39.9,67.7,39.8,67.9,39.5z"/>
	<path class="st2" d="M75.7,35.8v5.6h-1.5v-0.8c-0.2,0.3-0.4,0.5-0.6,0.7c-0.3,0.2-0.6,0.2-0.9,0.2c-0.6,0-1.1-0.2-1.4-0.6
		c-0.3-0.4-0.5-1-0.5-1.8v-3.3h1.5v3.4c0,0.7,0.3,1,0.8,1c0.3,0,0.6-0.1,0.8-0.4c0.2-0.2,0.3-0.5,0.3-0.9v-3.1H75.7z"/>
	<path class="st2" d="M80.4,35.7l0,1.5c-0.2-0.1-0.5-0.2-0.7-0.2c-0.4,0-0.7,0.1-0.9,0.4c-0.2,0.2-0.3,0.6-0.3,1v2.9h-1.5v-4
		c0-0.6,0-1.1-0.1-1.6h1.4l0.1,1c0.1-0.4,0.3-0.6,0.6-0.8c0.3-0.2,0.6-0.3,0.9-0.3C80.1,35.6,80.3,35.7,80.4,35.7z"/>
	<path class="st2" d="M86,35.8v5.6h-1.5v-0.8c-0.2,0.3-0.4,0.5-0.6,0.7c-0.3,0.2-0.6,0.2-0.9,0.2c-0.4,0-0.8-0.1-1.2-0.4
		c-0.3-0.2-0.6-0.6-0.8-1c-0.2-0.4-0.3-0.9-0.3-1.5s0.1-1.1,0.3-1.5c0.2-0.4,0.5-0.8,0.8-1c0.3-0.2,0.7-0.4,1.2-0.4
		c0.4,0,0.7,0.1,0.9,0.3c0.3,0.2,0.5,0.4,0.6,0.7v-0.8H86z M84.2,39.7c0.2-0.3,0.3-0.7,0.3-1.2c0-0.5-0.1-0.9-0.3-1.2
		c-0.2-0.3-0.5-0.4-0.9-0.4c-0.4,0-0.7,0.1-0.9,0.4c-0.2,0.3-0.3,0.7-0.3,1.2c0,0.5,0.1,0.9,0.3,1.2c0.2,0.3,0.5,0.4,0.9,0.4
		C83.7,40.2,84,40,84.2,39.7z"/>
	<path class="st2" d="M92.1,38v3.4h-1.5V38c0-0.4-0.1-0.7-0.2-0.9c-0.1-0.2-0.3-0.3-0.6-0.3c-0.3,0-0.6,0.1-0.8,0.4
		c-0.2,0.2-0.3,0.5-0.3,0.9v3.1h-1.5v-4c0-0.6,0-1.1-0.1-1.6h1.4l0.1,0.9c0.2-0.3,0.4-0.6,0.7-0.8c0.3-0.2,0.6-0.3,1-0.3
		C91.5,35.6,92.1,36.4,92.1,38z"/>
	<path class="st2" d="M96.9,41.2c-0.3,0.1-0.6,0.2-1,0.2l0,0.4c0,0,0.1,0,0.1,0c0.3,0,0.5,0.1,0.6,0.2s0.2,0.3,0.2,0.6
		c0,0.3-0.1,0.5-0.4,0.7c-0.2,0.2-0.6,0.3-1,0.3c-0.1,0-0.3,0-0.5,0c-0.2,0-0.3-0.1-0.5-0.1l0.1-0.6c0.3,0.1,0.6,0.2,0.8,0.2
		c0.3,0,0.5-0.1,0.5-0.3c0-0.1,0-0.1-0.1-0.2c-0.1,0-0.1-0.1-0.2-0.1c-0.1,0-0.2,0-0.4,0.1L95,42.2l0.1-0.8
		c-0.6-0.1-1.1-0.4-1.5-0.9c-0.4-0.5-0.5-1.1-0.5-1.9c0-0.6,0.1-1.1,0.3-1.5c0.2-0.4,0.5-0.8,1-1c0.4-0.2,0.9-0.4,1.4-0.4
		c0.4,0,0.7,0.1,1.1,0.2c0.3,0.1,0.6,0.3,0.8,0.5l-0.4,1.2c-0.2-0.2-0.4-0.3-0.7-0.4c-0.2-0.1-0.5-0.1-0.7-0.1c-0.4,0-0.7,0.1-1,0.4
		c-0.2,0.3-0.3,0.7-0.3,1.2c0,0.5,0.1,0.9,0.3,1.2c0.2,0.3,0.5,0.4,1,0.4c0.2,0,0.5,0,0.7-0.1c0.2-0.1,0.5-0.2,0.7-0.4l0.4,1.2
		C97.5,40.9,97.2,41.1,96.9,41.2z"/>
	<path class="st2" d="M103.4,35.8v5.6H102v-0.8c-0.2,0.3-0.4,0.5-0.6,0.7c-0.3,0.2-0.6,0.2-0.9,0.2c-0.4,0-0.8-0.1-1.2-0.4
		c-0.3-0.2-0.6-0.6-0.8-1c-0.2-0.4-0.3-0.9-0.3-1.5s0.1-1.1,0.3-1.5c0.2-0.4,0.5-0.8,0.8-1c0.3-0.2,0.7-0.4,1.2-0.4
		c0.4,0,0.7,0.1,0.9,0.3c0.3,0.2,0.5,0.4,0.6,0.7v-0.8H103.4z M101.7,39.7c0.2-0.3,0.3-0.7,0.3-1.2c0-0.5-0.1-0.9-0.3-1.2
		c-0.2-0.3-0.5-0.4-0.9-0.4c-0.4,0-0.7,0.1-0.9,0.4c-0.2,0.3-0.3,0.7-0.3,1.2c0,0.5,0.1,0.9,0.3,1.2c0.2,0.3,0.5,0.4,0.9,0.4
		C101.2,40.2,101.5,40,101.7,39.7z"/>
</g>
</svg>
