<?xml version="1.0" encoding="utf-8"?>
<!-- Generator: Adobe Illustrator 25.0.0, SVG Export Plug-In . SVG Version: 6.00 Build 0)  -->
<svg version="1.1" id="a84af097-5da4-4de0-94e9-e7b9c8f9d6fd"
	 xmlns="http://www.w3.org/2000/svg" xmlns:xlink="http://www.w3.org/1999/xlink" x="0px" y="0px" viewBox="0 0 130 92.3"
	 style="enable-background:new 0 0 130 92.3;" xml:space="preserve">
<style type="text/css">
	.st0{fill:#00784D;}
	.st1{fill:#F6BE3E;}
</style>
<g>
	<g>
		<path class="st0" d="M41.8,20.1L37,25.6l-1.9,8C33.8,39.3,29.2,45,22.7,45c-6.9,0-12.4-5.6-12.4-12.4s5.6-12.4,12.4-12.4
			c2.4,0,4.7,0.7,6.6,1.9c0,0,0,0,0,0c0.8,0.5,1.7,0.8,2.7,0.8c2.9,0,5.2-2.3,5.2-5.2c0-2.2-1.4-4.1-3.3-4.9c-3.3-1.9-7.2-3-11.2-3
			C10.1,9.7-0.1,20-0.1,32.6s10.2,22.8,22.8,22.8c12.6,0,22.8-10.2,22.8-22.8C45.6,28,44.2,23.7,41.8,20.1z"/>
		<path class="st1" d="M107.3,9.7c-7.6,0-13.9,4-18.4,9.4c-0.4,0.5-0.9,1-1.4,1.6c-1.3,1.4-2.9,3.1-4.6,5
			c-4.8,5.1-10.1,10.4-10.1,10.4l0,0c-2.8,2.8-5.4,5.2-7.4,6.8c-1.8,1.4-4.2,2-6.6,2c-6.9,0-12.4-5.6-12.4-12.4s5.6-12.4,12.4-12.4
			c3.3,0,6.3,1.3,8.5,3.4l0,0l6.6,6.9l6.2-6.2l1.2-1.2l-6.1-6.4l0,0c-4.1-4.3-9.9-6.9-16.3-6.9C46.2,9.7,35.9,20,35.9,32.6
			s10.2,22.8,22.8,22.8c7.6,0,13.9-4,18.4-9.4c4-4.7,16.9-17.8,20.3-21.2c1.1-0.9,2.1-1.9,3.2-2.7c1.8-1.4,4.2-2,6.6-2
			c6.9,0,12.4,5.6,12.4,12.4S114.1,45,107.3,45c-3.3,0-6.3-1.3-8.5-3.4l0,0l-6.6-6.9L86,40.9l-1.2,1.2l6.1,6.4l0,0
			c4.1,4.3,9.9,6.9,16.3,6.9c12.6,0,22.8-10.2,22.8-22.8S119.9,9.7,107.3,9.7z"/>
	</g>
	<g>
		<path d="M3.6,77.8c-0.9-0.6-1.6-1.3-2.1-2.3c-0.5-1-0.7-2.2-0.7-3.5c0-1.3,0.2-2.5,0.7-3.5c0.5-1,1.2-1.8,2.1-2.3
			c0.9-0.6,1.9-0.8,3.1-0.8c0.8,0,1.5,0.1,2.3,0.4c0.7,0.3,1.3,0.6,1.8,1.1l-0.8,2.1c-0.5-0.4-1.1-0.8-1.6-1c-0.5-0.2-1-0.3-1.6-0.3
			c-1.1,0-1.9,0.4-2.4,1.1c-0.6,0.7-0.8,1.8-0.8,3.3c0,1.4,0.3,2.5,0.8,3.3c0.6,0.8,1.4,1.1,2.4,1.1c0.6,0,1.1-0.1,1.6-0.3
			c0.5-0.2,1-0.5,1.6-1l0.8,2.1c-0.5,0.5-1,0.8-1.8,1.1c-0.7,0.3-1.5,0.4-2.3,0.4C5.5,78.6,4.5,78.3,3.6,77.8z"/>
		<path d="M12.4,78.4V64.9h2.5v13.5H12.4z"/>
		<path d="M16.9,64.7h2.7v2.6h-2.7V64.7z M17,78.4v-9.3h2.5v9.3H17z"/>
		<path d="M22.3,77.3c-0.8-0.9-1.2-2-1.2-3.5c0-1,0.2-1.8,0.6-2.6c0.4-0.7,0.9-1.3,1.6-1.7c0.7-0.4,1.5-0.6,2.4-0.6
			c0.6,0,1.2,0.1,1.8,0.3c0.6,0.2,1,0.5,1.4,0.8L28.1,72c-0.3-0.3-0.7-0.5-1.1-0.7c-0.4-0.2-0.8-0.2-1.2-0.2c-0.7,0-1.2,0.2-1.6,0.7
			c-0.4,0.5-0.6,1.1-0.6,2c0,0.9,0.2,1.6,0.6,2c0.4,0.5,0.9,0.7,1.6,0.7c0.4,0,0.8-0.1,1.2-0.2c0.4-0.2,0.8-0.4,1.1-0.7l0.7,1.9
			c-0.4,0.4-0.8,0.6-1.4,0.8c-0.6,0.2-1.2,0.3-1.8,0.3C24.1,78.6,23.1,78.1,22.3,77.3z"/>
		<path d="M38.9,78.4h-3.1l-3.3-4.2v4.2H30V64.9h2.5v8.2l3.2-4h3l-3.6,4.5L38.9,78.4z"/>
		<path d="M45.9,78.2c-0.8-0.3-1.5-0.6-2.1-1.1l0.8-2.1c1.1,0.9,2.4,1.3,3.8,1.3c0.8,0,1.3-0.1,1.7-0.4c0.4-0.3,0.6-0.6,0.6-1.1
			c0-0.4-0.2-0.7-0.6-1c-0.4-0.2-1-0.5-2-0.7c-1-0.2-1.9-0.5-2.5-0.9c-0.6-0.3-1.1-0.7-1.3-1.2c-0.3-0.5-0.4-1.1-0.4-1.8
			c0-0.8,0.2-1.5,0.6-2.1c0.4-0.6,0.9-1.1,1.7-1.5c0.7-0.3,1.5-0.5,2.5-0.5c0.8,0,1.7,0.1,2.4,0.4s1.4,0.6,1.9,1.1l-0.8,2.1
			c-1-0.9-2.2-1.3-3.4-1.3c-0.7,0-1.2,0.1-1.6,0.4c-0.4,0.3-0.6,0.7-0.6,1.2c0,0.3,0.1,0.5,0.2,0.7c0.2,0.2,0.4,0.4,0.8,0.5
			c0.4,0.2,0.9,0.3,1.5,0.4c1.5,0.4,2.6,0.8,3.3,1.4s1,1.4,1,2.4c0,1.2-0.4,2.2-1.3,2.9c-0.9,0.7-2.1,1.1-3.6,1.1
			C47.6,78.6,46.7,78.5,45.9,78.2z"/>
		<path d="M62.7,74h-5.6c0,0.9,0.2,1.5,0.6,1.9c0.4,0.4,0.9,0.6,1.6,0.6c0.4,0,0.9-0.1,1.3-0.2c0.4-0.2,0.8-0.4,1.2-0.7l0.7,1.9
			c-0.4,0.4-0.9,0.6-1.5,0.8c-0.6,0.2-1.2,0.3-1.8,0.3c-1.4,0-2.5-0.4-3.3-1.3c-0.8-0.9-1.2-2-1.2-3.5c0-0.9,0.2-1.8,0.5-2.5
			c0.3-0.7,0.8-1.3,1.5-1.7c0.6-0.4,1.3-0.6,2.1-0.6c1.2,0,2.1,0.4,2.8,1.3s1,2,1,3.4V74z M57.8,71.3c-0.3,0.3-0.5,0.8-0.6,1.3h3.3
			c-0.1-1.2-0.7-1.8-1.6-1.8C58.4,70.8,58.1,71,57.8,71.3z"/>
		<path d="M72.8,69.1V78c0,1.5-0.4,2.6-1.2,3.4c-0.8,0.8-1.9,1.2-3.4,1.2c-1.3,0-2.5-0.3-3.5-0.9l0.4-2.1c1,0.6,2,0.8,3,0.8
			c0.7,0,1.3-0.2,1.6-0.6c0.4-0.4,0.5-0.9,0.5-1.7v-1.6c-0.3,0.5-0.6,0.8-1.1,1.1c-0.5,0.3-1,0.4-1.6,0.4c-0.7,0-1.4-0.2-1.9-0.6
			c-0.6-0.4-1-0.9-1.3-1.6c-0.3-0.7-0.5-1.5-0.5-2.4c0-0.9,0.2-1.7,0.5-2.4c0.3-0.7,0.8-1.2,1.3-1.6c0.6-0.4,1.2-0.6,1.9-0.6
			c0.6,0,1.1,0.1,1.6,0.4c0.5,0.3,0.8,0.7,1.1,1.1v-1.3H72.8z M69.8,75.4c0.3-0.4,0.5-1.1,0.5-1.9c0-0.8-0.2-1.4-0.5-1.8
			C69.5,71.2,69,71,68.4,71c-0.6,0-1.1,0.2-1.5,0.7c-0.4,0.4-0.5,1.1-0.5,1.8s0.2,1.4,0.5,1.9c0.4,0.5,0.8,0.7,1.5,0.7
			C69,76.1,69.5,75.8,69.8,75.4z"/>
		<path d="M82.9,69.1v9.3h-2.4v-1.4c-0.3,0.5-0.6,0.9-1,1.1c-0.4,0.3-0.9,0.4-1.5,0.4c-1.1,0-1.8-0.3-2.4-1
			c-0.5-0.6-0.8-1.6-0.8-2.9v-5.5h2.5v5.6c0,1.1,0.4,1.7,1.3,1.7c0.5,0,0.9-0.2,1.3-0.6c0.3-0.4,0.5-0.9,0.5-1.5v-5.2H82.9z"/>
		<path d="M90.7,69.1l0,2.5c-0.4-0.2-0.8-0.3-1.2-0.3c-0.7,0-1.2,0.2-1.5,0.6c-0.3,0.4-0.5,1-0.5,1.7v4.9h-2.5v-6.6
			c0-1,0-1.9-0.1-2.7h2.4l0.2,1.6c0.2-0.6,0.5-1,1-1.3c0.4-0.3,1-0.5,1.5-0.5C90.2,68.9,90.5,69,90.7,69.1z"/>
		<path d="M100,69.1v9.3h-2.5V77c-0.3,0.5-0.6,0.9-1.1,1.1c-0.5,0.3-1,0.4-1.6,0.4c-0.7,0-1.4-0.2-1.9-0.6c-0.6-0.4-1-1-1.3-1.7
			c-0.3-0.7-0.5-1.6-0.5-2.5c0-1,0.2-1.8,0.5-2.6c0.3-0.7,0.8-1.3,1.3-1.7c0.6-0.4,1.2-0.6,1.9-0.6c0.6,0,1.1,0.1,1.6,0.4
			c0.5,0.3,0.8,0.7,1.1,1.1v-1.3H100z M97.1,75.8c0.3-0.5,0.5-1.1,0.5-2c0-0.9-0.2-1.6-0.5-2c-0.3-0.5-0.8-0.7-1.4-0.7
			c-0.6,0-1.1,0.2-1.4,0.7c-0.3,0.5-0.5,1.2-0.5,2c0,0.9,0.2,1.5,0.5,2c0.3,0.5,0.8,0.7,1.5,0.7C96.2,76.5,96.7,76.2,97.1,75.8z"/>
		<path d="M110.3,72.8v5.6h-2.5v-5.5c0-0.6-0.1-1.1-0.3-1.4c-0.2-0.3-0.6-0.4-1-0.4c-0.6,0-1,0.2-1.3,0.6c-0.3,0.4-0.5,0.9-0.5,1.6
			v5.2h-2.5v-6.6c0-1,0-1.9-0.1-2.7h2.4l0.2,1.5c0.3-0.6,0.7-1,1.2-1.3c0.5-0.3,1-0.4,1.6-0.4C109.3,68.9,110.3,70.2,110.3,72.8z"/>
		<path d="M118.3,78.2c-0.5,0.2-1.1,0.3-1.6,0.3l-0.1,0.6c0.1,0,0.1,0,0.2,0c0.4,0,0.8,0.1,1,0.3c0.3,0.2,0.4,0.5,0.4,0.9
			c0,0.5-0.2,0.9-0.6,1.2c-0.4,0.3-1,0.4-1.7,0.4c-0.2,0-0.5,0-0.8-0.1c-0.3-0.1-0.5-0.1-0.8-0.2l0.2-1.1c0.5,0.2,0.9,0.3,1.3,0.3
			c0.5,0,0.8-0.2,0.8-0.5c0-0.1,0-0.2-0.1-0.3c-0.1-0.1-0.2-0.1-0.4-0.1c-0.1,0-0.3,0-0.6,0.1l-0.3-0.4l0.2-1.3
			c-1.1-0.2-1.9-0.7-2.5-1.5c-0.6-0.8-0.9-1.9-0.9-3.2c0-1,0.2-1.8,0.6-2.6c0.4-0.7,0.9-1.3,1.6-1.7c0.7-0.4,1.5-0.6,2.4-0.6
			c0.6,0,1.2,0.1,1.8,0.3c0.6,0.2,1,0.5,1.4,0.8l-0.7,1.9c-0.3-0.3-0.7-0.5-1.1-0.7c-0.4-0.2-0.8-0.2-1.2-0.2
			c-0.7,0-1.2,0.2-1.6,0.7c-0.4,0.5-0.6,1.1-0.6,2c0,0.9,0.2,1.6,0.6,2c0.4,0.5,0.9,0.7,1.6,0.7c0.4,0,0.8-0.1,1.2-0.2
			c0.4-0.2,0.8-0.4,1.1-0.7l0.7,1.9C119.2,77.8,118.8,78,118.3,78.2z"/>
		<path d="M129.2,69.1v9.3h-2.5V77c-0.3,0.5-0.6,0.9-1.1,1.1c-0.5,0.3-1,0.4-1.6,0.4c-0.7,0-1.4-0.2-1.9-0.6c-0.6-0.4-1-1-1.3-1.7
			c-0.3-0.7-0.5-1.6-0.5-2.5c0-1,0.2-1.8,0.5-2.6c0.3-0.7,0.8-1.3,1.3-1.7c0.6-0.4,1.2-0.6,1.9-0.6c0.6,0,1.1,0.1,1.6,0.4
			c0.5,0.3,0.8,0.7,1.1,1.1v-1.3H129.2z M126.2,75.8c0.3-0.5,0.5-1.1,0.5-2c0-0.9-0.2-1.6-0.5-2c-0.3-0.5-0.8-0.7-1.4-0.7
			c-0.6,0-1.1,0.2-1.4,0.7c-0.3,0.5-0.5,1.2-0.5,2c0,0.9,0.2,1.5,0.5,2c0.3,0.5,0.8,0.7,1.5,0.7C125.4,76.5,125.9,76.2,126.2,75.8z"
			/>
	</g>
</g>
</svg>
