<?xml version="1.0" encoding="utf-8"?>
<!-- Generator: Adobe Illustrator 25.0.0, SVG Export Plug-In . SVG Version: 6.00 Build 0)  -->
<svg version="1.1" id="b945c438-653d-418f-ac49-1feecc56d3ac"
	 xmlns="http://www.w3.org/2000/svg" xmlns:xlink="http://www.w3.org/1999/xlink" x="0px" y="0px" viewBox="0 0 44 44"
	 style="enable-background:new 0 0 44 44;" xml:space="preserve">
<style type="text/css">
	.st0{opacity:0.32;fill:url(#SVGID_1_);enable-background:new    ;}
	.st1{opacity:0.32;fill:url(#SVGID_2_);enable-background:new    ;}
	.st2{opacity:0.32;fill:url(#SVGID_3_);enable-background:new    ;}
	.st3{opacity:0.32;fill:url(#SVGID_4_);enable-background:new    ;}
	.st4{fill:#007A4C;}
	.st5{fill:#FCBF43;}
</style>
<linearGradient id="SVGID_1_" gradientUnits="userSpaceOnUse" x1="32.0202" y1="802.8712" x2="31.7402" y2="802.9211" gradientTransform="matrix(1 0 0 1 0 -796.8898)">
	<stop  offset="4.000000e-02" style="stop-color:#01ACA6"/>
	<stop  offset="0.15" style="stop-color:#03A9A8;stop-opacity:0.93"/>
	<stop  offset="0.36" style="stop-color:#0AA2AE;stop-opacity:0.75"/>
	<stop  offset="0.63" style="stop-color:#1496B7;stop-opacity:0.46"/>
	<stop  offset="0.96" style="stop-color:#2286C4;stop-opacity:6.000000e-02"/>
	<stop  offset="1" style="stop-color:#2484C6;stop-opacity:0"/>
</linearGradient>
<path class="st0" d="M31.6,5.6c0.1,0.2,0.3,0.5,0.4,0.8L31.6,5.6z"/>
<linearGradient id="SVGID_2_" gradientUnits="userSpaceOnUse" x1="34.1808" y1="803.3255" x2="37.1308" y2="803.8655" gradientTransform="matrix(1 0 0 1 0 -796.8898)">
	<stop  offset="4.000000e-02" style="stop-color:#231F20"/>
	<stop  offset="0.44" style="stop-color:#234157;stop-opacity:0.67"/>
	<stop  offset="1" style="stop-color:#2484C6;stop-opacity:0"/>
</linearGradient>
<path class="st1" d="M31.6,5.6c0.1,0.2,0.3,0.5,0.4,0.8C31.9,6.1,31.8,5.9,31.6,5.6z"/>
<linearGradient id="SVGID_3_" gradientUnits="userSpaceOnUse" x1="39.5798" y1="802.0876" x2="29.5998" y2="803.1376" gradientTransform="matrix(1 0 0 1 0 -796.8898)">
	<stop  offset="0.63" style="stop-color:#03B1AD"/>
	<stop  offset="0.72" style="stop-color:#53CAC7;stop-opacity:0.68"/>
	<stop  offset="0.81" style="stop-color:#9DE1DF;stop-opacity:0.39"/>
	<stop  offset="0.89" style="stop-color:#D2F1F0;stop-opacity:0.18"/>
	<stop  offset="0.96" style="stop-color:#F3FBFB;stop-opacity:5.000000e-02"/>
	<stop  offset="1" style="stop-color:#FFFFFF;stop-opacity:0"/>
</linearGradient>
<path class="st2" d="M31.6,5.6c0.1,0.2,0.3,0.5,0.4,0.8L31.6,5.6z"/>
<linearGradient id="SVGID_4_" gradientUnits="userSpaceOnUse" x1="42.5915" y1="811.4179" x2="38.3515" y2="808.0579" gradientTransform="matrix(1 0 0 1 0 -796.8898)">
	<stop  offset="0.63" style="stop-color:#03B1AD"/>
	<stop  offset="0.72" style="stop-color:#53CAC7;stop-opacity:0.68"/>
	<stop  offset="0.81" style="stop-color:#9DE1DF;stop-opacity:0.39"/>
	<stop  offset="0.89" style="stop-color:#D2F1F0;stop-opacity:0.18"/>
	<stop  offset="0.96" style="stop-color:#F3FBFB;stop-opacity:5.000000e-02"/>
	<stop  offset="1" style="stop-color:#FFFFFF;stop-opacity:0"/>
</linearGradient>
<path class="st3" d="M31.6,5.6l0.4,0.8C31.9,6.1,31.8,5.9,31.6,5.6z"/>
<g>
	<path class="st4" d="M14.2,17.8l-1.6,1.9L12,22.3c-0.2,2.1-2,3.8-4.2,3.8c-2.3,0-4.2-1.9-4.2-4.2s1.9-4.2,4.2-4.2
		c0.8,0,1.6,0.2,2.2,0.6c0,0,0,0,0,0c0.3,0.2,0.6,0.3,0.9,0.3c1,0,1.8-0.8,1.8-1.8c0-0.7-0.5-1.4-1.1-1.6c-1.1-0.6-2.4-1-3.8-1
		c-4.2,0-7.7,3.4-7.7,7.7s3.4,7.7,7.7,7.7c4.2,0,7.7-3.4,7.7-7.7C15.5,20.4,15,19,14.2,17.8z"/>
	<path class="st5" d="M36.2,14.3c-2.5,0-4.7,1.4-6.2,3.2c-0.2,0.2-0.3,0.4-0.5,0.6c-0.4,0.5-0.9,1-1.5,1.6c-1.6,1.7-3.4,3.5-3.4,3.5
		l0,0c-0.9,0.9-1.8,1.8-2.5,2.3c-0.6,0.5-1.4,0.7-2.2,0.7c-2.3,0-4.2-1.9-4.2-4.2s1.9-4.2,4.2-4.2c1.1,0,2.1,0.4,2.8,1.1l0,0
		l2.2,2.3l2.1-2.1l0.4-0.4l-2.1-2.2l0,0c-1.4-1.4-3.3-2.3-5.5-2.3c-4.2,0-7.7,3.4-7.7,7.7s3.4,7.7,7.7,7.7c2.5,0,4.7-1.4,6.2-3.2
		c1.4-1.6,5.7-6,6.8-7.1c0.4-0.3,0.7-0.6,1.1-0.9c0.6-0.5,1.4-0.7,2.2-0.7c2.3,0,4.2,1.9,4.2,4.2s-1.9,4.2-4.2,4.2
		c-1.1,0-2.1-0.4-2.8-1.1l0,0l-2.2-2.3l-2.1,2.1l-0.4,0.4l2.1,2.2l0,0c1.4,1.4,3.3,2.3,5.5,2.3c4.2,0,7.7-3.4,7.7-7.7
		S40.4,14.3,36.2,14.3z"/>
</g>
</svg>
